PathFileType	4	(x/y/z)	S01_M20_T03.trc
DataRate	CameraRate	NumFrames	NumMarkers	Units	OrigDataRate	OrigDataStartFrame	OrigNumFrames
240	240	4	51	mm	240	428	488
Frame#	Time	Sternum			R.Acromium			L.Acromium			Top.Head			R.ASIS			L.ASIS			R.PSIS			L.PSIS			R.Great.Tro			L.Great.Tro			R.Iliac.Crest			L.Iliac.Crest			V.Sacral			R.Thigh.Upper.Post			R.Thigh.Lower.Ant			R.Thigh.Lower.Post			R.Thigh.Upper.Ant			R.Knee.Lat			R.Knee.Med			R.Shank.Upper.Post			R.Shank.Lower.Ant			R.Shank.Lower.Post			R.Shank.Upper.Ant			R.Ankle.Lat			R.Ankle.Med			R.Heel.Upper			R.Heel.Med			R.Heel.Lat			R.Toe.Lat			R.Toe.Med			R.Toe.Tip			L.Thigh.Upper.Post			L.Thigh.Lower.Ant			L.Thigh.Lower.Post			L.Thigh.Upper.Ant			L.Knee.Lat			L.Knee.Med			L.Shank.Upper.Post			L.Shank.Lower.Ant			L.Shank.Lower.Post			L.Shank.Upper.Ant			L.Ankle.Lat			L.Ankle.Med			L.Heel.Upper			L.Heel.Med			L.Heel.Lat			L.Toe.Lat			L.Toe.Med			L.Toe.Tip			Cervical.Spine			Back			
		X1	Y1	Z1	X2	Y2	Z2	X3	Y3	Z3	X4	Y4	Z4	X5	Y5	Z5	X6	Y6	Z6	X7	Y7	Z7	X8	Y8	Z8	X9	Y9	Z9	X10	Y10	Z10	X11	Y11	Z11	X12	Y12	Z12	X13	Y13	Z13	X14	Y14	Z14	X15	Y15	Z15	X16	Y16	Z16	X17	Y17	Z17	X18	Y18	Z18	X19	Y19	Z19	X20	Y20	Z20	X21	Y21	Z21	X22	Y22	Z22	X23	Y23	Z23	X24	Y24	Z24	X25	Y25	Z25	X26	Y26	Z26	X27	Y27	Z27	X28	Y28	Z28	X29	Y29	Z29	X30	Y30	Z30	X31	Y31	Z31	X32	Y32	Z32	X33	Y33	Z33	X34	Y34	Z34	X35	Y35	Z35	X36	Y36	Z36	X37	Y37	Z37	X38	Y38	Z38	X39	Y39	Z39	X40	Y40	Z40	X41	Y41	Z41	X42	Y42	Z42	X43	Y43	Z43	X44	Y44	Z44	X45	Y45	Z45	X46	Y46	Z46	X47	Y47	Z47	X48	Y48	Z48	X49	Y49	Z49	X50	Y50	Z50	X51	Y51	Z51	

428	1.7792	862.85	1262.6	280.19	746.48	1507.2	458.74	726.73	1522.1	127.26	693.5	1830.2	293.31	820.87	1004.1	432.72	813.81	1007.2	164	583.68	1044.7	353.04	574.04	1053.9	250.36	750.09	950.42	520.14	694.73	967.5	93.005	735.46	1102.8	500.4	697.46	1087.9	96.134	562.73	1014.5	297.62	867.73	664.12	497.38	964.1	638.07	473.33	913.61	590.87	473.06	920.33	714.45	495.96	963.98	553.61	469.24	978.84	559.08	323.2	973.18	385.67	482.71	1067.5	337.08	451.22	999.44	320.75	470.79	1036.7	402.29	468.72	1093.9	134.12	437.16	1130.4	162.92	351.45	1058.5	76.236	369.31	1090.2	61.142	342.66	1078	52.746	405.1	1237.7	131.1	489.86	1275.7	163.22	375.52	1311	209.63	438.35	585.47	710.37	124.57	645.74	618.2	123.53	570.03	621.93	141.63	653.93	711.79	102.19	586.7	524.46	132.08	617.33	520.68	273.73	494.42	398.91	124.02	532.16	297.54	150.07	475.86	323.64	131.06	551.43	371.26	138.25	414.63	115.65	181.85	441.2	126.21	276.27	340.1	90.285	227.81	348.23	64.335	261.33	347.28	63.971	198.64	555.82	38.482	164.84	578.46	44.884	286.49	643.4	49.989	238.1	641.9	1567.8	299.5	565.43	1258.2	316.57
429	1.7833	868.39	1261.2	280.52	752.22	1505.7	459.49	732.1	1520.9	128.01	699.1	1828.9	294.23	826.73	1002.7	432.78	819.04	1005.9	164.03	589.34	1043.5	353.76	579.41	1052.9	251.13	756.25	949.03	520.33	699.5	966.62	93.307	741.46	1101.4	500.74	702.54	1086.8	96.548	568.14	1013.4	298.38	873.67	662.87	497.23	969.93	636.79	472.71	919.46	589.58	472.91	926.25	713.21	495.39	969.97	552.55	468.95	983.95	557.57	322.73	980.93	384.67	482.78	1075.7	337.04	451.09	1007.9	320.02	470.9	1044.2	401.96	468.58	1104.4	134.29	437.29	1140.3	163.36	351.45	1069.5	75.808	369.63	1101.3	61.041	342.93	1089.3	52.632	405.43	1248.2	133.08	489.74	1285.6	165.41	375.24	1320.6	212.35	437.95	589.28	710.1	125.03	649.18	617.64	123.66	573.46	621.7	142.03	657.69	711.24	102.45	589.65	524.16	132.28	620.72	520.06	273.86	496.62	399.16	124.32	533.73	297.53	150.21	477.58	324.02	131.31	553.48	371.11	138.42	415.14	116.25	182.13	441.81	126.73	276.45	340.47	91.246	228.11	348.52	65.277	261.61	347.49	64.917	198.93	555.84	38.527	164.89	578.6	44.834	286.52	643.52	49.749	238.09	647.48	1566.5	300.38	570.92	1256.9	317.26
430	1.7875	873.95	1259.9	280.85	757.99	1504.3	460.26	737.48	1519.8	128.78	704.71	1827.6	295.2	832.64	1001.2	432.84	824.3	1004.6	164.07	595.04	1042.3	354.5	584.81	1051.9	251.92	762.46	947.65	520.53	704.3	965.74	93.629	747.51	1099.9	501.1	707.65	1085.7	96.979	573.58	1012.4	299.18	879.67	661.64	497.1	975.8	635.53	472.09	925.36	588.32	472.79	932.23	712	494.81	975.98	551.48	468.7	989.05	556.04	322.29	988.58	383.69	482.88	1083.7	336.94	450.96	1016.1	319.29	471.03	1051.6	401.59	468.46	1114.5	134.4	437.41	1149.9	163.7	351.44	1080.1	75.346	369.95	1112	60.885	343.2	1100.3	52.474	405.77	1258.5	134.89	489.59	1295.3	167.4	374.91	1329.9	214.84	437.5	593.16	709.83	125.5	652.7	617.09	123.79	576.96	621.47	142.43	661.53	710.68	102.73	592.7	523.87	132.49	624.2	519.45	273.98	498.9	399.43	124.61	535.37	297.53	150.35	479.36	324.41	131.54	555.59	370.98	138.59	415.69	116.89	182.4	442.44	127.28	276.62	340.87	92.275	228.39	348.83	66.292	261.88	347.73	65.926	199.19	555.87	38.573	164.94	578.75	44.787	286.55	643.65	49.504	238.08	653.08	1565.2	301.28	576.45	1255.6	317.95
431	1.7917	879.54	1258.6	281.19	763.77	1502.8	461.04	742.87	1518.6	129.57	710.33	1826.4	296.2	838.59	999.82	432.91	829.59	1003.4	164.1	600.78	1041.1	355.27	590.25	1050.8	252.73	768.74	946.3	520.74	709.14	964.87	93.971	753.62	1098.5	501.48	712.79	1084.5	97.425	579.06	1011.3	300	885.73	660.45	496.99	981.73	634.28	471.48	931.3	587.07	472.71	938.28	710.81	494.22	982.02	550.42	468.46	994.15	554.49	321.87	996.14	382.71	483.01	1091.6	336.77	450.84	1024.2	318.55	471.18	1058.9	401.18	468.34	1124.3	134.45	437.54	1159.2	163.93	351.42	1090.3	74.84	370.28	1122.3	60.659	343.47	1110.8	52.261	406.12	1268.4	136.52	489.39	1304.6	169.16	374.53	1338.9	217.08	436.99	597.12	709.56	125.97	656.3	616.54	123.93	580.55	621.25	142.84	665.43	710.13	103.01	595.82	523.58	132.69	627.76	518.83	274.11	501.26	399.72	124.9	537.06	297.55	150.48	481.21	324.84	131.77	557.78	370.87	138.75	416.27	117.57	182.65	443.11	127.88	276.77	341.29	93.375	228.65	349.15	67.381	262.13	347.98	67.002	199.44	555.9	38.62	165	578.9	44.745	286.59	643.79	49.255	238.08	658.7	1564	302.2	582.02	1254.3	318.64
